<?xml version="1.0" encoding="UTF-8" standalone="no"?>
<!-- Created with Inkscape (http://www.inkscape.org/) -->

<svg
   xmlns:dc="http://purl.org/dc/elements/1.1/"
   xmlns:cc="http://creativecommons.org/ns#"
   xmlns:rdf="http://www.w3.org/1999/02/22-rdf-syntax-ns#"
   xmlns:svg="http://www.w3.org/2000/svg"
   xmlns="http://www.w3.org/2000/svg"
   xmlns:sodipodi="http://sodipodi.sourceforge.net/DTD/sodipodi-0.dtd"
   xmlns:inkscape="http://www.inkscape.org/namespaces/inkscape"
   width="75.488792mm"
   height="21.728994mm"
   viewBox="0 0 75.488792 21.728994"
   version="1.1"
   id="svg4484"
   inkscape:version="0.92.4 (unknown)"
   sodipodi:docname="cividi-logo-dark.svg">
  <defs
     id="defs4478" />
  <sodipodi:namedview
     id="base"
     pagecolor="#ffffff"
     bordercolor="#666666"
     borderopacity="1.0"
     inkscape:pageopacity="0.0"
     inkscape:pageshadow="2"
     inkscape:zoom="0.35"
     inkscape:cx="-194.48688"
     inkscape:cy="-278.93733"
     inkscape:document-units="mm"
     inkscape:current-layer="layer1"
     showgrid="false"
     fit-margin-top="0"
     fit-margin-left="0"
     fit-margin-right="0"
     fit-margin-bottom="0"
     inkscape:window-width="1920"
     inkscape:window-height="1016"
     inkscape:window-x="0"
     inkscape:window-y="27"
     inkscape:window-maximized="1" />
  <metadata
     id="metadata4481">
    <rdf:RDF>
      <cc:Work
         rdf:about="">
        <dc:format>image/svg+xml</dc:format>
        <dc:type
           rdf:resource="http://purl.org/dc/dcmitype/StillImage" />
        <dc:title></dc:title>
      </cc:Work>
    </rdf:RDF>
  </metadata>
  <g
     inkscape:label="Layer 1"
     inkscape:groupmode="layer"
     id="layer1"
     transform="translate(-15.172272,-53.30217)">
    <path
       d="M 90.661062,75.031164 H 15.172272 V 53.30217 h 75.48879 z"
       style="fill:#483583;fill-opacity:1;fill-rule:nonzero;stroke:none;stroke-width:0.35277775"
       id="path12"
       inkscape:connector-curvature="0" />
    <path
       inkscape:connector-curvature="0"
       id="path34"
       style="fill:#ffffff;fill-opacity:1;fill-rule:nonzero;stroke:none;stroke-width:0.35277775"
       d="m 51.782562,66.145256 h -1.60268 v -4.264025 h -2.3569 c -0.2921,0 -0.52917,0.237067 -0.52917,0.529167 0,0.292453 0.23707,0.529167 0.52917,0.529167 h 1.29857 v 3.205691 h -1.60302 c -0.2921,0 -0.52917,0.236714 -0.52917,0.529167 0,0.292453 0.23707,0.529167 0.52917,0.529167 h 4.26403 c 0.29245,0 0.52916,-0.236714 0.52916,-0.529167 0,-0.292453 -0.23671,-0.529167 -0.52916,-0.529167" />
    <path
       inkscape:connector-curvature="0"
       id="path38"
       style="fill:#ffffff;fill-opacity:1;fill-rule:nonzero;stroke:none;stroke-width:0.35277775"
       d="m 66.324122,66.145256 h -1.60266 v -4.264025 h -2.35656 c -0.29245,0 -0.52917,0.237067 -0.52917,0.529167 0,0.292453 0.23672,0.529167 0.52917,0.529167 h 1.29822 v 3.205691 h -1.60302 c -0.2921,0 -0.52917,0.236714 -0.52917,0.529167 0,0.292453 0.23707,0.529167 0.52917,0.529167 h 4.26402 c 0.29246,0 0.52917,-0.236714 0.52917,-0.529167 0,-0.292453 -0.23671,-0.529167 -0.52917,-0.529167" />
    <path
       inkscape:connector-curvature="0"
       id="path42"
       style="fill:#ffffff;fill-opacity:1;fill-rule:nonzero;stroke:none;stroke-width:0.35277775"
       d="m 81.595732,66.145256 h -1.60267 v -4.264025 h -2.35655 c -0.29246,0 -0.52917,0.237067 -0.52917,0.529167 0,0.292453 0.23671,0.529167 0.52917,0.529167 h 1.29822 v 3.205691 h -1.60302 c -0.2921,0 -0.52917,0.236714 -0.52917,0.529167 0,0.292453 0.23707,0.529167 0.52917,0.529167 h 4.26402 c 0.29246,0 0.52917,-0.236714 0.52917,-0.529167 0,-0.292453 -0.23671,-0.529167 -0.52917,-0.529167" />
    <path
       inkscape:connector-curvature="0"
       id="path46"
       style="fill:#ffffff;fill-opacity:1;fill-rule:nonzero;stroke:none;stroke-width:0.35277775"
       d="m 59.595882,61.881267 h -2.04365 c -0.29245,0 -0.52916,0.237066 -0.52916,0.529166 0,0.292453 0.23671,0.529167 0.52916,0.529167 h 0.37677 l -1.41076,2.861028 -1.41322,-2.861028 h 0.38064 c 0.29246,0 0.52917,-0.236714 0.52917,-0.529167 0,-0.2921 -0.23671,-0.529166 -0.52917,-0.529166 h -2.04364 c -0.2921,0 -0.52916,0.237066 -0.52916,0.529166 0,0.292453 0.23706,0.529167 0.52916,0.529167 h 0.48225 l 2.12019,4.291189 c 0.0892,0.180269 0.27305,0.294569 0.47449,0.294569 h 2.6e-4 c 0.20144,0 0.38524,-0.114652 0.47449,-0.295275 l 2.11526,-4.290483 h 0.48683 c 0.2921,0 0.52917,-0.236714 0.52917,-0.529167 0,-0.2921 -0.23707,-0.529166 -0.52917,-0.529166" />
    <path
       inkscape:connector-curvature="0"
       id="path50"
       style="fill:#ffffff;fill-opacity:1;fill-rule:nonzero;stroke:none;stroke-width:0.35277775"
       d="m 50.431912,59.973727 c 0,0.4318 -0.34996,0.781402 -0.7814,0.781402 -0.43145,0 -0.78141,-0.349602 -0.78141,-0.781402 0,-0.431448 0.34996,-0.781403 0.78141,-0.781403 0.43144,0 0.7814,0.349955 0.7814,0.781403" />
    <path
       inkscape:connector-curvature="0"
       id="path54"
       style="fill:#ffffff;fill-opacity:1;fill-rule:nonzero;stroke:none;stroke-width:0.35277775"
       d="m 64.973482,59.973727 c 0,0.4318 -0.34995,0.781402 -0.7814,0.781402 -0.43145,0 -0.7814,-0.349602 -0.7814,-0.781402 0,-0.431448 0.34995,-0.781403 0.7814,-0.781403 0.43145,0 0.7814,0.349955 0.7814,0.781403" />
    <path
       inkscape:connector-curvature="0"
       id="path58"
       style="fill:#ffffff;fill-opacity:1;fill-rule:nonzero;stroke:none;stroke-width:0.35277775"
       d="m 80.245092,59.973727 c 0,0.4318 -0.34996,0.781402 -0.78141,0.781402 -0.43144,0 -0.7814,-0.349602 -0.7814,-0.781402 0,-0.431448 0.34996,-0.781403 0.7814,-0.781403 0.43145,0 0.78141,0.349955 0.78141,0.781403" />
    <path
       inkscape:connector-curvature="0"
       id="path62"
       style="fill:#ffffff;fill-opacity:1;fill-rule:nonzero;stroke:none;stroke-width:0.35277775"
       d="m 70.997762,66.341471 c -0.99201,0 -1.79917,-0.807155 -1.79917,-1.799166 0,-0.991659 0.80716,-1.798814 1.79917,-1.798814 0.99201,0 1.79881,0.807155 1.79881,1.798814 0,0.992011 -0.8068,1.799166 -1.79881,1.799166 m 3.51331,-0.14605 h -0.36477 c -0.16051,0 -0.29139,-0.13088 -0.29139,-0.291394 v -6.459361 h -1.7145 c -0.2921,0 -0.52917,0.237067 -0.52917,0.529167 0,0.2921 0.23707,0.529166 0.52917,0.529166 h 0.65616 v 1.82245 c -0.49142,-0.399697 -1.11724,-0.640291 -1.79881,-0.640291 -1.57551,0 -2.8575,1.281994 -2.8575,2.857147 0,1.575858 1.28199,2.8575 2.8575,2.8575 0.77258,0 1.47355,-0.309387 1.98826,-0.809625 0.2353,0.396522 0.66675,0.663575 1.16028,0.663575 h 0.36477 c 0.29246,0 0.52917,-0.236714 0.52917,-0.529167 0,-0.292453 -0.23671,-0.529167 -0.52917,-0.529167" />
    <path
       inkscape:connector-curvature="0"
       id="path66"
       style="fill:#ffffff;fill-opacity:1;fill-rule:nonzero;stroke:none;stroke-width:0.35277775"
       d="m 42.503192,67.399805 c -1.67498,0 -3.03706,-1.362428 -3.03706,-3.037064 0,-1.674989 1.36208,-3.037417 3.03706,-3.037417 0.81104,0 1.57375,0.316089 2.14736,0.889706 l 0.15522,0.154869 v 1.213908 c 0,0.2921 -0.23706,0.529167 -0.52916,0.529167 -0.2921,0 -0.52917,-0.237067 -0.52917,-0.529167 v -0.760236 c -0.35101,-0.285044 -0.78599,-0.439914 -1.24425,-0.439914 -1.09114,0 -1.97873,0.887589 -1.97873,1.979084 0,1.091141 0.88759,1.97873 1.97873,1.97873 0.52846,0 1.02553,-0.205669 1.39912,-0.579614 0.20673,-0.206727 0.54187,-0.206727 0.74824,0 0.20673,0.206375 0.20673,0.541867 0,0.748242 -0.57361,0.573617 -1.33632,0.889706 -2.14736,0.889706" />
    <path
       inkscape:connector-curvature="0"
       id="path70"
       style="fill:#ffffff;fill-opacity:1;fill-rule:nonzero;stroke:none;stroke-width:0.35277775"
       d="m 30.303262,59.973727 c 0,0.4318 -0.34996,0.781402 -0.78141,0.781402 -0.43144,0 -0.7814,-0.349602 -0.7814,-0.781402 0,-0.431448 0.34996,-0.781403 0.7814,-0.781403 0.43145,0 0.78141,0.349955 0.78141,0.781403" />
    <path
       inkscape:connector-curvature="0"
       id="path74"
       style="fill:#ffffff;fill-opacity:1;fill-rule:nonzero;stroke:none;stroke-width:0.35277775"
       d="m 27.132212,64.905031 c 0,0.431447 -0.34996,0.781402 -0.7814,0.781402 -0.43145,0 -0.78141,-0.349955 -0.78141,-0.781402 0,-0.4318 0.34996,-0.781403 0.78141,-0.781403 0.43144,0 0.7814,0.349603 0.7814,0.781403" />
    <path
       inkscape:connector-curvature="0"
       id="path78"
       style="fill:#ffffff;fill-opacity:1;fill-rule:nonzero;stroke:none;stroke-width:0.35277775"
       d="m 33.474452,64.905031 c 0,0.431447 -0.34996,0.781402 -0.78141,0.781402 -0.43144,0 -0.7814,-0.349955 -0.7814,-0.781402 0,-0.4318 0.34996,-0.781403 0.7814,-0.781403 0.43145,0 0.78141,0.349603 0.78141,0.781403" />
    <path
       inkscape:connector-curvature="0"
       id="path82"
       style="fill:#ffffff;fill-opacity:1;fill-rule:nonzero;stroke:none;stroke-width:0.35277775"
       d="m 29.521892,69.406898 c -0.23495,0 -0.44062,-0.157691 -0.50236,-0.384175 l -2.32657,-8.591197 c -0.20108,0.147109 -0.39158,0.310092 -0.56761,0.486128 -0.44944,0.449439 -0.80046,0.973667 -1.04246,1.55822 -0.24201,0.582788 -0.36442,1.201208 -0.36442,1.838325 0,0.637116 0.12241,1.255888 0.36442,1.838677 0.24236,0.5842 0.59302,1.108428 1.04246,1.557867 0.22189,0.22225 0.46707,0.423686 0.72813,0.598311 0.23883,0.159808 0.30268,0.482953 0.14287,0.721783 -0.1598,0.238831 -0.48295,0.303036 -0.72213,0.142875 -0.3168,-0.212372 -0.61489,-0.456847 -0.88477,-0.727075 -0.54645,-0.546452 -0.97331,-1.184275 -1.26824,-1.895122 -0.29421,-0.709789 -0.44344,-1.462616 -0.44344,-2.237316 0,-0.7747 0.14923,-1.527175 0.44344,-2.236964 0.29493,-0.7112 0.72144,-1.349022 1.26824,-1.895475 0.27023,-0.270228 0.56797,-0.514703 0.88477,-0.727075 0.15875,-0.106186 0.3242,-0.205317 0.49177,-0.295275 0.1397,-0.07514 0.30621,-0.0822 0.45191,-0.0194 0.1457,0.06315 0.2547,0.188736 0.29633,0.341841 l 2.00766,7.413978 2.00766,-7.413978 c 0.0416,-0.153105 0.15063,-0.278694 0.29633,-0.341841 0.1457,-0.06279 0.31221,-0.05574 0.45191,0.0194 0.16757,0.08996 0.33302,0.189089 0.49177,0.295275 0.3168,0.212372 0.61454,0.456847 0.88477,0.727075 0.5468,0.546453 0.97331,1.184275 1.26823,1.895475 0.29457,0.709789 0.44345,1.462264 0.44345,2.236964 0,0.7747 -0.14888,1.527527 -0.44345,2.237316 -0.29492,0.710847 -0.72143,1.34867 -1.26823,1.895122 -0.26988,0.270228 -0.56762,0.514703 -0.88477,0.727075 -0.23883,0.160161 -0.56197,0.09596 -0.72178,-0.142875 -0.16016,-0.23883 -0.096,-0.561975 0.14252,-0.721783 0.26106,-0.174625 0.50624,-0.376061 0.72813,-0.598311 0.44944,-0.449439 0.80046,-0.973667 1.04281,-1.557867 0.24166,-0.582789 0.36407,-1.201561 0.36407,-1.838677 0,-0.637117 -0.12241,-1.255537 -0.36407,-1.838325 -0.24235,-0.584553 -0.59301,-1.108781 -1.04281,-1.55822 -0.17603,-0.176036 -0.36653,-0.339019 -0.56762,-0.486128 l -2.32657,8.591197 c -0.0614,0.226484 -0.2674,0.384175 -0.50235,0.384175" />
  </g>
</svg>
