<?xml version="1.0" encoding="UTF-8" standalone="no"?>
<!-- Created with Inkscape (http://www.inkscape.org/) -->

<svg
   xmlns:dc="http://purl.org/dc/elements/1.1/"
   xmlns:cc="http://creativecommons.org/ns#"
   xmlns:rdf="http://www.w3.org/1999/02/22-rdf-syntax-ns#"
   xmlns:svg="http://www.w3.org/2000/svg"
   xmlns="http://www.w3.org/2000/svg"
   xmlns:sodipodi="http://sodipodi.sourceforge.net/DTD/sodipodi-0.dtd"
   xmlns:inkscape="http://www.inkscape.org/namespaces/inkscape"
   width="75.4888mm"
   height="21.729347mm"
   viewBox="0 0 75.4888 21.729347"
   version="1.1"
   id="svg4484"
   inkscape:version="0.92.4 (unknown)"
   sodipodi:docname="cividi-logo-white.svg">
  <defs
     id="defs4478" />
  <sodipodi:namedview
     id="base"
     pagecolor="#ffffff"
     bordercolor="#666666"
     borderopacity="1.0"
     inkscape:pageopacity="0.0"
     inkscape:pageshadow="2"
     inkscape:zoom="0.35"
     inkscape:cx="-1046.1166"
     inkscape:cy="-557.874"
     inkscape:document-units="mm"
     inkscape:current-layer="layer1"
     showgrid="false"
     fit-margin-top="0"
     fit-margin-left="0"
     fit-margin-right="0"
     fit-margin-bottom="0"
     inkscape:window-width="1920"
     inkscape:window-height="1016"
     inkscape:window-x="0"
     inkscape:window-y="27"
     inkscape:window-maximized="1" />
  <metadata
     id="metadata4481">
    <rdf:RDF>
      <cc:Work
         rdf:about="">
        <dc:format>image/svg+xml</dc:format>
        <dc:type
           rdf:resource="http://purl.org/dc/dcmitype/StillImage" />
        <dc:title></dc:title>
      </cc:Work>
    </rdf:RDF>
  </metadata>
  <g
     inkscape:label="Layer 1"
     inkscape:groupmode="layer"
     id="layer1"
     transform="translate(-240.4993,20.500176)">
    <path
       d="M 240.5434,-20.456079 H 315.944 V 1.1847212 h -75.4006 z"
       style="fill:#ffffff;fill-opacity:1;fill-rule:nonzero;stroke:none;stroke-width:0.35277775"
       id="path84"
       inkscape:connector-curvature="0" />
    <path
       d="M 315.9881,-20.500176 H 240.4993 V 1.2291712 h 75.4888 z M 315.8999,1.1409762 H 240.5875 V -20.411982 h 75.31241 z"
       style="fill:#483583;fill-opacity:1;fill-rule:nonzero;stroke:none;stroke-width:0.35277775"
       id="path86"
       inkscape:connector-curvature="0" />
    <path
       inkscape:connector-curvature="0"
       id="path90"
       style="fill:#483583;fill-opacity:1;fill-rule:nonzero;stroke:none;stroke-width:0.35277775"
       d="m 277.10959,-6.6567528 h -1.60267 v -4.2636722 h -2.35691 c -0.2921,0 -0.52916,0.236714 -0.52916,0.529166 0,0.2921 0.23706,0.5291672 0.52916,0.5291672 h 1.29858 v 3.205339 h -1.60302 c -0.2921,0 -0.52917,0.236714 -0.52917,0.529167 0,0.292452 0.23707,0.529166 0.52917,0.529166 h 4.26402 c 0.29245,0 0.52917,-0.236714 0.52917,-0.529166 0,-0.292453 -0.23672,-0.529167 -0.52917,-0.529167" />
    <path
       inkscape:connector-curvature="0"
       id="path94"
       style="fill:#483583;fill-opacity:1;fill-rule:nonzero;stroke:none;stroke-width:0.35277775"
       d="m 291.65116,-6.6567528 h -1.60267 v -4.2636722 h -2.35655 c -0.29246,0 -0.52917,0.236714 -0.52917,0.529166 0,0.2921 0.23671,0.5291672 0.52917,0.5291672 h 1.29822 v 3.205339 h -1.60302 c -0.2921,0 -0.52917,0.236714 -0.52917,0.529167 0,0.292452 0.23707,0.529166 0.52917,0.529166 h 4.26402 c 0.29246,0 0.52917,-0.236714 0.52917,-0.529166 0,-0.292453 -0.23671,-0.529167 -0.52917,-0.529167" />
    <path
       inkscape:connector-curvature="0"
       id="path98"
       style="fill:#483583;fill-opacity:1;fill-rule:nonzero;stroke:none;stroke-width:0.35277775"
       d="m 306.92277,-6.6567528 h -1.60267 v -4.2636722 h -2.35655 c -0.29246,0 -0.52917,0.236714 -0.52917,0.529166 0,0.2921 0.23671,0.5291672 0.52917,0.5291672 h 1.29822 v 3.205339 h -1.60302 c -0.2921,0 -0.52917,0.236714 -0.52917,0.529167 0,0.292452 0.23707,0.529166 0.52917,0.529166 h 4.26402 c 0.29245,0 0.52917,-0.236714 0.52917,-0.529166 0,-0.292453 -0.23672,-0.529167 -0.52917,-0.529167" />
    <path
       inkscape:connector-curvature="0"
       id="path102"
       style="fill:#483583;fill-opacity:1;fill-rule:nonzero;stroke:none;stroke-width:0.35277775"
       d="m 284.92291,-10.920566 h -2.04364 c -0.29245,0 -0.52917,0.236714 -0.52917,0.529166 0,0.2921 0.23672,0.5291672 0.52917,0.5291672 h 0.37677 l -1.41076,2.860675 -1.41323,-2.860675 h 0.38065 c 0.29245,0 0.52917,-0.2370672 0.52917,-0.5291672 0,-0.292452 -0.23672,-0.529166 -0.52917,-0.529166 h -2.04364 c -0.2921,0 -0.52917,0.236714 -0.52917,0.529166 0,0.2921 0.23707,0.5291672 0.52917,0.5291672 h 0.48224 l 2.1202,4.290836 c 0.0892,0.180622 0.27305,0.294922 0.47449,0.294922 h 2.6e-4 c 0.20144,-3.44e-4 0.38523,-0.114653 0.47449,-0.295275 l 2.11525,-4.290483 h 0.48684 c 0.2921,0 0.52916,-0.2370672 0.52916,-0.5291672 0,-0.292452 -0.23706,-0.529166 -0.52916,-0.529166" />
    <path
       inkscape:connector-curvature="0"
       id="path106"
       style="fill:#483583;fill-opacity:1;fill-rule:nonzero;stroke:none;stroke-width:0.35277775"
       d="m 275.75895,-12.828106 c 0,0.431447 -0.34996,0.781403 -0.78141,0.781403 -0.43144,0 -0.7814,-0.349956 -0.7814,-0.781403 0,-0.431447 0.34996,-0.781403 0.7814,-0.781403 0.43145,0 0.78141,0.349956 0.78141,0.781403" />
    <path
       inkscape:connector-curvature="0"
       id="path110"
       style="fill:#483583;fill-opacity:1;fill-rule:nonzero;stroke:none;stroke-width:0.35277775"
       d="m 290.30052,-12.828106 c 0,0.431447 -0.34996,0.781403 -0.78141,0.781403 -0.43144,0 -0.7814,-0.349956 -0.7814,-0.781403 0,-0.431447 0.34996,-0.781403 0.7814,-0.781403 0.43145,0 0.78141,0.349956 0.78141,0.781403" />
    <path
       inkscape:connector-curvature="0"
       id="path114"
       style="fill:#483583;fill-opacity:1;fill-rule:nonzero;stroke:none;stroke-width:0.35277775"
       d="m 305.57213,-12.828106 c 0,0.431447 -0.34996,0.781403 -0.78141,0.781403 -0.43144,0 -0.7814,-0.349956 -0.7814,-0.781403 0,-0.431447 0.34996,-0.781403 0.7814,-0.781403 0.43145,0 0.78141,0.349956 0.78141,0.781403" />
    <path
       inkscape:connector-curvature="0"
       id="path118"
       style="fill:#483583;fill-opacity:1;fill-rule:nonzero;stroke:none;stroke-width:0.35277775"
       d="m 296.3248,-6.4605378 c -0.99201,0 -1.79917,-0.807156 -1.79917,-1.798814 0,-0.992011 0.80716,-1.7991672 1.79917,-1.7991672 0.99201,0 1.79881,0.8071562 1.79881,1.7991672 0,0.991658 -0.8068,1.798814 -1.79881,1.798814 m 3.51331,-0.14605 h -0.36477 c -0.16051,0 -0.2914,-0.130881 -0.2914,-0.291395 v -6.4593602 h -1.7145 c -0.2921,0 -0.52916,0.237066 -0.52916,0.529166 0,0.292453 0.23706,0.529167 0.52916,0.529167 h 0.65617 v 1.82245 c -0.49142,-0.399697 -1.11725,-0.640292 -1.79881,-0.640292 -1.57551,0 -2.8575,1.2819952 -2.8575,2.8575002 0,1.575506 1.28199,2.857147 2.8575,2.857147 0.77258,0 1.47355,-0.309386 1.98825,-0.809625 0.2353,0.396522 0.66675,0.663575 1.16029,0.663575 h 0.36477 c 0.29245,0 0.52917,-0.236714 0.52917,-0.529166 0,-0.292453 -0.23672,-0.529167 -0.52917,-0.529167" />
    <path
       inkscape:connector-curvature="0"
       id="path122"
       style="fill:#483583;fill-opacity:1;fill-rule:nonzero;stroke:none;stroke-width:0.35277775"
       d="m 267.83023,-5.4022048 c -1.67499,0 -3.03706,-1.362428 -3.03706,-3.037064 0,-1.6746362 1.36207,-3.0374162 3.03706,-3.0374162 0.81104,0 1.57374,0.316089 2.14736,0.889705 l 0.15522,0.15487 v 1.2139082 c 0,0.292453 -0.23707,0.529167 -0.52917,0.529167 -0.2921,0 -0.52916,-0.236714 -0.52916,-0.529167 v -0.760236 c -0.35102,-0.2850442 -0.78599,-0.4399142 -1.24425,-0.4399142 -1.09114,0 -1.97873,0.8879422 -1.97873,1.9790832 0,1.091142 0.88759,1.978731 1.97873,1.978731 0.52846,0 1.02553,-0.20567 1.39912,-0.579614 0.20673,-0.206728 0.54186,-0.206728 0.74824,0 0.20673,0.206375 0.20673,0.541867 0,0.748242 -0.57362,0.573616 -1.33632,0.889705 -2.14736,0.889705" />
    <path
       inkscape:connector-curvature="0"
       id="path126"
       style="fill:#483583;fill-opacity:1;fill-rule:nonzero;stroke:none;stroke-width:0.35277775"
       d="m 255.63029,-14.82818 c 0,0.4318 -0.34995,0.781403 -0.7814,0.781403 -0.43145,0 -0.7814,-0.349603 -0.7814,-0.781403 0,-0.431447 0.34995,-0.781402 0.7814,-0.781402 0.43145,0 0.7814,0.349955 0.7814,0.781402" />
    <path
       inkscape:connector-curvature="0"
       id="path130"
       style="fill:#483583;fill-opacity:1;fill-rule:nonzero;stroke:none;stroke-width:0.35277775"
       d="m 252.45924,-9.8968758 c 0,0.431447 -0.34995,0.781403 -0.7814,0.781403 -0.43145,0 -0.7814,-0.349956 -0.7814,-0.781403 0,-0.4318002 0.34995,-0.7814032 0.7814,-0.7814032 0.43145,0 0.7814,0.349603 0.7814,0.7814032" />
    <path
       inkscape:connector-curvature="0"
       id="path134"
       style="fill:#483583;fill-opacity:1;fill-rule:nonzero;stroke:none;stroke-width:0.35277775"
       d="m 258.80148,-9.8968758 c 0,0.431447 -0.34995,0.781403 -0.7814,0.781403 -0.43145,0 -0.7814,-0.349956 -0.7814,-0.781403 0,-0.4318002 0.34995,-0.7814032 0.7814,-0.7814032 0.43145,0 0.7814,0.349603 0.7814,0.7814032" />
    <path
       inkscape:connector-curvature="0"
       id="path138"
       style="fill:#483583;fill-opacity:1;fill-rule:nonzero;stroke:none;stroke-width:0.35277775"
       d="m 254.84893,-5.3949728 c -0.23495,0 -0.44062,-0.157691 -0.50236,-0.384175 L 252.02,-14.370345 c -0.20108,0.147109 -0.39158,0.310092 -0.56762,0.486128 -0.44944,0.449439 -0.80045,0.973667 -1.04246,1.55822 -0.242,0.582788 -0.36442,1.201208 -0.36442,1.838324 0,0.6371172 0.12242,1.2558892 0.36442,1.8386782 0.24236,0.5842 0.59302,1.108428 1.04246,1.557867 0.2219,0.22225 0.46708,0.423686 0.72814,0.598311 0.23883,0.159808 0.30268,0.482953 0.14287,0.721783 -0.15981,0.238831 -0.48295,0.303036 -0.72214,0.142875 -0.31679,-0.212372 -0.61489,-0.456847 -0.88476,-0.727075 -0.54646,-0.546453 -0.97332,-1.184275 -1.26824,-1.895122 -0.29422,-0.709789 -0.44344,-1.462617 -0.44344,-2.2373172 0,-0.7747 0.14922,-1.527174 0.44344,-2.236963 0.29492,-0.7112 0.72143,-1.349023 1.26824,-1.895475 0.27023,-0.270228 0.56797,-0.514703 0.88476,-0.727075 0.15875,-0.106186 0.32421,-0.205317 0.49178,-0.295275 0.1397,-0.07514 0.30621,-0.0822 0.4519,-0.0194 0.1457,0.06315 0.25471,0.188736 0.29634,0.341841 l 2.00766,7.4139782 2.00765,-7.4139782 c 0.0416,-0.153105 0.15064,-0.278694 0.29634,-0.341841 0.1457,-0.0628 0.31221,-0.05574 0.45191,0.0194 0.16757,0.08996 0.33302,0.189089 0.49177,0.295275 0.31679,0.212372 0.61454,0.456847 0.88477,0.727075 0.5468,0.546452 0.97331,1.184275 1.26823,1.895475 0.29457,0.709789 0.44344,1.462263 0.44344,2.236963 0,0.7747002 -0.14887,1.5275282 -0.44344,2.2373172 -0.29492,0.710847 -0.72143,1.348669 -1.26823,1.895122 -0.26988,0.270228 -0.56762,0.514703 -0.88477,0.727075 -0.23883,0.160161 -0.56198,0.09596 -0.72178,-0.142875 -0.16017,-0.23883 -0.096,-0.561975 0.14252,-0.721783 0.26105,-0.174625 0.50623,-0.376061 0.72813,-0.598311 0.44944,-0.449439 0.80045,-0.973667 1.04281,-1.557867 0.24165,-0.582789 0.36407,-1.201561 0.36407,-1.8386782 0,-0.637116 -0.12242,-1.255536 -0.36407,-1.838324 -0.24236,-0.584553 -0.59302,-1.108781 -1.04281,-1.55822 -0.17604,-0.176036 -0.36654,-0.339019 -0.56762,-0.486128 l -2.32657,8.5911972 c -0.0614,0.226484 -0.2674,0.384175 -0.50235,0.384175" />
  </g>
</svg>
