<?xml version="1.0" encoding="UTF-8" standalone="no"?>
<!-- Created with Inkscape (http://www.inkscape.org/) -->

<svg
   xmlns:dc="http://purl.org/dc/elements/1.1/"
   xmlns:cc="http://creativecommons.org/ns#"
   xmlns:rdf="http://www.w3.org/1999/02/22-rdf-syntax-ns#"
   xmlns:svg="http://www.w3.org/2000/svg"
   xmlns="http://www.w3.org/2000/svg"
   xmlns:sodipodi="http://sodipodi.sourceforge.net/DTD/sodipodi-0.dtd"
   xmlns:inkscape="http://www.inkscape.org/namespaces/inkscape"
   version="1.1"
   id="svg2"
   xml:space="preserve"
   width="550"
   height="250"
   viewBox="0 0 550 250.00001"
   sodipodi:docname="cividi-logo-jp.svg"
   inkscape:version="0.92.4 (unknown)"
   inkscape:export-filename="/home/oleg/Downloads/cividi-logo.ai.png"
   inkscape:export-xdpi="62.138184"
   inkscape:export-ydpi="62.138184"><metadata
     id="metadata8"><rdf:RDF><cc:Work
         rdf:about=""><dc:format>image/svg+xml</dc:format><dc:type
           rdf:resource="http://purl.org/dc/dcmitype/StillImage" /><dc:title></dc:title></cc:Work></rdf:RDF></metadata><defs
     id="defs6"><clipPath
       clipPathUnits="userSpaceOnUse"
       id="clipPath20"><path
         d="M 0,113.386 H 411.024 V 0 H 0 Z"
         id="path18"
         inkscape:connector-curvature="0" /></clipPath></defs><sodipodi:namedview
     pagecolor="#ffffff"
     bordercolor="#666666"
     borderopacity="1"
     objecttolerance="10"
     gridtolerance="10"
     guidetolerance="10"
     inkscape:pageopacity="0"
     inkscape:pageshadow="2"
     inkscape:window-width="977"
     inkscape:window-height="576"
     id="namedview4"
     showgrid="false"
     inkscape:zoom="0.60215464"
     inkscape:cx="272.35529"
     inkscape:cy="75.590668"
     inkscape:window-x="0"
     inkscape:window-y="27"
     inkscape:window-maximized="0"
     inkscape:current-layer="g10" /><g
     id="g10"
     inkscape:groupmode="layer"
     inkscape:label="cividi-logo"
     transform="matrix(1.3333333,0,0,-1.3333333,0,249.99999)"><path
       d="M 0.73800381,74.113996 H 411.76201 V 187.5 H 0.73800381 Z"
       style="fill:#483583;fill-opacity:1;fill-rule:nonzero;stroke:none"
       id="path12"
       inkscape:connector-curvature="0" /><g
       id="g14"
       transform="translate(0.7381569,77.11391)"><g
         id="g16"
         clip-path="url(#clipPath20)"><g
           id="g22"
           transform="translate(199.1694,42.9611)"><path
             d="m 0,0 h -9.087 v 24.174 h -13.36 c -1.657,0 -3,-1.343 -3,-3 0,-1.657 1.343,-3 3,-3 h 7.36 V 0 h -9.087 c -1.657,0 -3,-1.343 -3,-3 0,-1.657 1.343,-3 3,-3 H 0 c 1.657,0 3,1.343 3,3 0,1.657 -1.343,3 -3,3"
             style="fill:#ffffff;fill-opacity:1;fill-rule:nonzero;stroke:none"
             id="path24"
             inkscape:connector-curvature="0" /></g><g
           id="g26"
           transform="translate(281.6103,42.9611)"><path
             d="m 0,0 h -9.087 v 24.174 h -13.36 c -1.657,0 -3,-1.343 -3,-3 0,-1.657 1.343,-3 3,-3 h 7.36 V 0 h -9.087 c -1.657,0 -3,-1.343 -3,-3 0,-1.657 1.343,-3 3,-3 H 0 c 1.657,0 3,1.343 3,3 0,1.657 -1.343,3 -3,3"
             style="fill:#ffffff;fill-opacity:1;fill-rule:nonzero;stroke:none"
             id="path28"
             inkscape:connector-curvature="0" /></g><g
           id="g30"
           transform="translate(368.1894,42.9611)"><path
             d="m 0,0 h -9.087 v 24.174 h -13.36 c -1.657,0 -3,-1.343 -3,-3 0,-1.657 1.343,-3 3,-3 h 7.36 V 0 h -9.087 c -1.657,0 -3,-1.343 -3,-3 0,-1.657 1.343,-3 3,-3 H 0 c 1.657,0 3,1.343 3,3 0,1.657 -1.343,3 -3,3"
             style="fill:#ffffff;fill-opacity:1;fill-rule:nonzero;stroke:none"
             id="path32"
             inkscape:connector-curvature="0" /></g><g
           id="g34"
           transform="translate(243.4648,67.1349)"><path
             d="m 0,0 h -11.586 c -1.657,0 -3,-1.343 -3,-3 0,-1.657 1.343,-3 3,-3 H -9.45 L -17.447,-22.22 -25.461,-6 h 2.16 c 1.656,0 3,1.343 3,3 0,1.657 -1.344,3 -3,3 h -11.587 c -1.657,0 -3,-1.343 -3,-3 0,-1.657 1.343,-3 3,-3 h 2.735 l 12.02,-24.327 c 0.505,-1.024 1.548,-1.671 2.689,-1.671 h 0.002 c 1.141,0.001 2.184,0.649 2.689,1.674 L -2.76,-6 H 0 c 1.657,0 3,1.343 3,3 0,1.657 -1.343,3 -3,3"
             style="fill:#ffffff;fill-opacity:1;fill-rule:nonzero;stroke:none"
             id="path36"
             inkscape:connector-curvature="0" /></g><g
           id="g38"
           transform="translate(191.5122,77.9489)"><path
             d="m 0,0 c 0,-2.446 -1.983,-4.43 -4.43,-4.43 -2.446,0 -4.429,1.984 -4.429,4.43 0,2.446 1.983,4.43 4.429,4.43 C -1.983,4.43 0,2.446 0,0"
             style="fill:#ffffff;fill-opacity:1;fill-rule:nonzero;stroke:none"
             id="path40"
             inkscape:connector-curvature="0" /></g><g
           id="g42"
           transform="translate(273.9531,77.9489)"><path
             d="m 0,0 c 0,-2.446 -1.983,-4.43 -4.43,-4.43 -2.446,0 -4.43,1.984 -4.43,4.43 0,2.446 1.984,4.43 4.43,4.43 C -1.983,4.43 0,2.446 0,0"
             style="fill:#ffffff;fill-opacity:1;fill-rule:nonzero;stroke:none"
             id="path44"
             inkscape:connector-curvature="0" /></g><g
           id="g46"
           transform="translate(360.5322,77.9489)"><path
             d="m 0,0 c 0,-2.446 -1.983,-4.43 -4.43,-4.43 -2.446,0 -4.43,1.984 -4.43,4.43 0,2.446 1.984,4.43 4.43,4.43 C -1.983,4.43 0,2.446 0,0"
             style="fill:#ffffff;fill-opacity:1;fill-rule:nonzero;stroke:none"
             id="path48"
             inkscape:connector-curvature="0" /></g><g
           id="g50"
           transform="translate(308.1059,41.8488)"><path
             d="m 0,0 c -5.624,0 -10.199,4.575 -10.199,10.199 0,5.624 4.575,10.199 10.199,10.199 5.624,0 10.199,-4.575 10.199,-10.199 C 10.199,4.575 5.624,0 0,0 M 19.919,0.828 H 17.85 c -0.911,0 -1.651,0.741 -1.651,1.651 V 39.1 h -9.72 c -1.657,0 -3,-1.343 -3,-3 0,-1.657 1.343,-3 3,-3 h 3.72 V 22.769 C 7.412,25.034 3.863,26.398 0,26.398 -8.932,26.398 -16.199,19.131 -16.199,10.199 -16.199,1.267 -8.932,-6 0,-6 c 4.381,0 8.354,1.755 11.273,4.59 1.334,-2.247 3.779,-3.762 6.577,-3.762 h 2.069 c 1.657,0 3,1.343 3,3 0,1.657 -1.343,3 -3,3"
             style="fill:#ffffff;fill-opacity:1;fill-rule:nonzero;stroke:none"
             id="path52"
             inkscape:connector-curvature="0" /></g><g
           id="g54"
           transform="translate(146.5615,35.8488)"><path
             d="m 0,0 c -9.495,0 -17.219,7.725 -17.219,17.219 0,9.495 7.724,17.219 17.219,17.219 4.599,0 8.923,-1.791 12.175,-5.043 l 0.879,-0.879 v -6.882 c 0,-1.656 -1.343,-3 -3,-3 -1.657,0 -3,1.344 -3,3 v 4.31 C 5.063,27.56 2.599,28.438 0,28.438 -6.186,28.438 -11.219,23.405 -11.219,17.219 -11.219,11.032 -6.186,6 0,6 c 2.997,0 5.813,1.167 7.933,3.286 1.171,1.172 3.071,1.172 4.242,0 1.172,-1.171 1.172,-3.071 0,-4.242 C 8.923,1.791 4.599,0 0,0"
             style="fill:#ffffff;fill-opacity:1;fill-rule:nonzero;stroke:none"
             id="path56"
             inkscape:connector-curvature="0" /></g><g
           id="g58"
           transform="translate(77.3969,77.9489)"><path
             d="m 0,0 c 0,-2.446 -1.983,-4.43 -4.43,-4.43 -2.446,0 -4.43,1.984 -4.43,4.43 0,2.446 1.984,4.43 4.43,4.43 C -1.983,4.43 0,2.446 0,0"
             style="fill:#ffffff;fill-opacity:1;fill-rule:nonzero;stroke:none"
             id="path60"
             inkscape:connector-curvature="0" /></g><g
           id="g62"
           transform="translate(59.4194,49.9924)"><path
             d="m 0,0 c 0,-2.446 -1.983,-4.43 -4.43,-4.43 -2.446,0 -4.429,1.984 -4.429,4.43 0,2.447 1.983,4.43 4.429,4.43 C -1.983,4.43 0,2.447 0,0"
             style="fill:#ffffff;fill-opacity:1;fill-rule:nonzero;stroke:none"
             id="path64"
             inkscape:connector-curvature="0" /></g><g
           id="g66"
           transform="translate(95.375,49.9924)"><path
             d="m 0,0 c 0,-2.446 -1.983,-4.43 -4.43,-4.43 -2.446,0 -4.429,1.984 -4.429,4.43 0,2.447 1.983,4.43 4.429,4.43 C -1.983,4.43 0,2.447 0,0"
             style="fill:#ffffff;fill-opacity:1;fill-rule:nonzero;stroke:none"
             id="path68"
             inkscape:connector-curvature="0" /></g><g
           id="g70"
           transform="translate(72.9673,24.4699)"><path
             d="m 0,0 c -1.332,0 -2.499,0.894 -2.848,2.179 l -13.19,48.705 c -1.14,-0.834 -2.22,-1.758 -3.219,-2.756 -2.548,-2.548 -4.537,-5.521 -5.91,-8.833 -1.371,-3.305 -2.065,-6.812 -2.065,-10.423 0,-3.612 0.694,-7.119 2.065,-10.424 1.374,-3.312 3.362,-6.284 5.911,-8.833 1.259,-1.26 2.648,-2.4 4.127,-3.39 1.354,-0.907 1.717,-2.739 0.81,-4.092 -0.905,-1.355 -2.738,-1.719 -4.092,-0.811 -1.798,1.203 -3.486,2.59 -5.017,4.121 -3.099,3.099 -5.517,6.714 -7.19,10.745 -1.669,4.025 -2.515,8.292 -2.515,12.684 0,4.391 0.846,8.658 2.515,12.683 1.672,4.031 4.091,7.646 7.19,10.745 1.532,1.532 3.22,2.918 5.016,4.122 0.9,0.602 1.838,1.165 2.788,1.674 0.792,0.426 1.736,0.465 2.562,0.109 0.826,-0.356 1.444,-1.07 1.679,-1.938 L 0,14.235 11.383,56.267 c 0.235,0.868 0.853,1.582 1.679,1.938 0.825,0.356 1.769,0.317 2.562,-0.109 0.95,-0.509 1.888,-1.072 2.787,-1.674 1.797,-1.204 3.485,-2.59 5.017,-4.121 3.099,-3.1 5.518,-6.715 7.19,-10.746 1.669,-4.025 2.515,-8.292 2.515,-12.683 0,-4.392 -0.846,-8.659 -2.515,-12.684 C 28.945,12.157 26.527,8.542 23.428,5.443 21.897,3.912 20.209,2.525 18.411,1.322 17.058,0.413 15.225,0.777 14.319,2.133 c -0.907,1.353 -0.544,3.185 0.81,4.092 1.479,0.99 2.868,2.13 4.127,3.39 2.549,2.549 4.537,5.521 5.911,8.833 1.371,3.305 2.065,6.812 2.065,10.424 0,3.611 -0.694,7.118 -2.065,10.423 -1.373,3.312 -3.362,6.285 -5.911,8.833 -0.998,0.998 -2.078,1.922 -3.218,2.755 L 2.848,2.179 C 2.499,0.894 1.332,0 0,0"
             style="fill:#ffffff;fill-opacity:1;fill-rule:nonzero;stroke:none"
             id="path72"
             inkscape:connector-curvature="0" /></g></g></g><text
       xml:space="preserve"
       style="font-style:normal;font-variant:normal;font-weight:normal;font-stretch:normal;font-size:43.44673157px;line-height:1.25;font-family:NanumGothic;-inkscape-font-specification:NanumGothic;text-align:start;letter-spacing:0px;word-spacing:0px;text-anchor:start;fill:#000000;fill-opacity:1;stroke:none;stroke-width:2.71542072"
       x="122.05024"
       y="-19.223921"
       id="text3779"
       transform="scale(1,-1)"><tspan
         sodipodi:role="line"
         id="tspan3777"
         x="122.05024"
         y="-19.223921"
         style="font-style:normal;font-variant:normal;font-weight:normal;font-stretch:normal;font-family:'Liberation Mono';-inkscape-font-specification:'Liberation Mono';stroke-width:2.71542072">街を見る</tspan></text>
</g></svg>