<?xml version="1.0" encoding="utf-8"?>
<!-- Generator: Adobe Illustrator 23.0.2, SVG Export Plug-In . SVG Version: 6.00 Build 0)  -->
<svg version="1.1" id="Layer_1" xmlns="http://www.w3.org/2000/svg" xmlns:xlink="http://www.w3.org/1999/xlink" x="0px" y="0px"
	 viewBox="0 0 419.53 297.64" style="enable-background:new 0 0 419.53 297.64;" xml:space="preserve">
<style type="text/css">
	.st0{fill:#FFFFFF;}
</style>
<g>
	<path class="st0" d="M187.35,28.14c8.68,0,17.58,0.08,26.47,0.24c19.79,0.35,56.79,2.13,91.23,5.18
		c56.31,4.99,67.27,9.97,69.28,11.37c2.84,1.98,10.14,10.24,16.6,44.12c3.93,20.62,6.21,43.7,7.03,58.42
		c0.71,12.75,1.45,37.81-1.54,62.33c-3.26,26.73-10.17,45.29-19.98,53.66c-1.61,1.38-8.67,4.83-39.2,7.1
		c-20.16,1.5-47.58,2.26-81.52,2.26c-88.27,0-198.55-5.16-236.49-7.08l13.28-10.16l1.97-1.51l-0.01-2.48
		c0-0.87-0.3-87.31,0.39-113.82c0.46-17.53,1.42-49.73,2.13-59.18l0.12-1.64c0.75-10.1,1.78-23.94,6.69-29.99
		c3.11-3.84,14.59-10.91,56.55-15.2C123.71,29.35,152.98,28.14,187.35,28.14L187.35,28.14 M187.35,23.14
		c-51.27,0-132.93,2.79-147.42,20.66c-6.19,7.63-7.06,23.17-7.91,34.41c-0.72,9.53-1.68,41.32-2.15,59.43
		c-0.7,26.89-0.39,113.97-0.39,113.97L5.42,270.02c0,0,141.05,7.79,250.32,7.79c62.48,0,114.57-2.55,123.96-10.56
		c25.18-21.49,24.93-90.11,23.26-120.07c-1.53-27.52-8.83-94.57-25.76-106.36C362.66,30.7,254.96,24.12,213.92,23.38
		C206.84,23.25,197.72,23.14,187.35,23.14L187.35,23.14z"/>
</g>
</svg>
